<svg width="32" height="26" viewBox="0 0 32 26" fill="none" xmlns="http://www.w3.org/2000/svg">
<path fill-rule="evenodd" clip-rule="evenodd" d="M1.59572 8.88063L1.57679 8.89325C0.695825 9.48056 0.166672 10.4693 0.166672 11.5281V24.0833C0.166672 24.9578 0.875554 25.6667 1.75001 25.6667H3.33334C4.20779 25.6667 4.91667 24.9578 4.91667 24.0833V22.5H27.0833V24.0833C27.0833 24.9578 27.7922 25.6667 28.6667 25.6667H30.25C31.1245 25.6667 31.8333 24.9578 31.8333 24.0833V11.5281C31.8333 10.4693 31.3042 9.48056 30.4232 8.89325L30.4043 8.88063C30.9813 8.54735 31.504 8.21997 31.6055 8.07407C31.8504 7.72222 31.963 6.66666 31.6055 6.66666H28.6667L26.8129 2.95906C26.0083 1.34984 24.3635 0.333328 22.5643 0.333328H9.43567C7.6365 0.333328 5.99175 1.34984 5.18714 2.95906L3.33334 6.66666H0.394484C0.0370562 6.66666 0.149579 7.72222 0.394484 8.07407C0.496035 8.21997 1.01867 8.54735 1.59572 8.88063ZM6.66144 3.59313L3.95425 8.66911C3.67301 9.19645 4.05514 9.83333 4.65278 9.83333H27.3472C27.9449 9.83333 28.327 9.19645 28.0458 8.66911L25.3386 3.59313C24.7882 2.56123 23.7139 1.91666 22.5445 1.91666H9.45556C8.28608 1.91666 7.21179 2.56123 6.66144 3.59313ZM1.75001 14.7098V12.795C1.75001 12.184 2.4128 11.8033 2.94057 12.1112L8.22705 15.1949C8.9556 15.6199 8.60294 16.7377 7.76241 16.6677L3.20185 16.2876C2.38122 16.2193 1.75001 15.5333 1.75001 14.7098ZM30.25 12.795V14.7098C30.25 15.5333 29.6188 16.2193 28.7982 16.2876L24.2376 16.6677C23.3971 16.7377 23.0444 15.6199 23.773 15.1949L29.0594 12.1112C29.5872 11.8033 30.25 12.184 30.25 12.795Z" fill="black"/>
</svg>
