<svg width="32" height="32" viewBox="0 0 32 32" fill="none" xmlns="http://www.w3.org/2000/svg">
<path fill-rule="evenodd" clip-rule="evenodd" d="M31.8333 16C31.8333 24.7445 24.7445 31.8333 16 31.8333C7.25549 31.8333 0.166664 24.7445 0.166664 16C0.166664 7.2555 7.25549 0.166672 16 0.166672C24.7445 0.166672 31.8333 7.2555 31.8333 16ZM14.0409 28.5161C12.9978 25.9559 10.0162 19.0193 8.08333 18.375C6.73143 17.9244 4.86652 17.9868 3.51066 18.1241C4.41372 23.4727 8.66919 27.6821 14.0409 28.5161ZM3.85495 12.3908C5.40899 7.15352 10.2584 3.33334 16 3.33334C21.7416 3.33334 26.591 7.15352 28.145 12.3908C25.6453 11.9223 21.1588 11.25 16 11.25C10.8412 11.25 6.35473 11.9223 3.85495 12.3908ZM28.4893 18.1241C27.1335 17.9868 25.2686 17.9244 23.9167 18.375C21.9838 19.0193 19.0022 25.9559 17.9591 28.5161C23.3308 27.6821 27.5863 23.4727 28.4893 18.1241Z" fill="black"/>
</svg>
